<svg id="Frame" xmlns="http://www.w3.org/2000/svg" width="24" height="24" viewBox="0 0 24 24">
  <rect id="Frame_Frame_Background_" data-name="Frame [Frame Background]" width="24" height="24" fill="none"/>
  <path id="Vector" d="M12,12.75a.75.75,0,0,1-.75.75h-6a.75.75,0,0,1,0-1.5h6a.75.75,0,0,1,.75.75Zm-.22-3.53a.75.75,0,0,1-.53,1.28h-6a.75.75,0,0,1,0-1.5h6A.75.75,0,0,1,11.78,9.22ZM16.5,3V18.75a1.5,1.5,0,0,1-1.5,1.5H1.5A1.5,1.5,0,0,1,0,18.75V3A1.5,1.5,0,0,1,1.5,1.5H4.9a4.492,4.492,0,0,1,6.7,0H15A1.5,1.5,0,0,1,16.5,3ZM5.25,4.5h6a3,3,0,0,0-6,0ZM15,3H12.492a4.493,4.493,0,0,1,.258,1.5v.75A.75.75,0,0,1,12,6H4.5a.75.75,0,0,1-.75-.75V4.5A4.494,4.494,0,0,1,4.008,3H1.5V18.75H15Z" transform="translate(3.75 1.5)" fill="#848a90"/>
</svg>
