<svg xmlns="http://www.w3.org/2000/svg" width="16.14" height="21" viewBox="0 0 16.14 21">
  <g id="car-seat_5102816" transform="translate(-68.669 -12.589)">
    <path id="Path_1" data-name="Path 1" d="M-214.33,0a3.523,3.523,0,0,1,1.856.6l.14.1a2.776,2.776,0,0,1,.774,1.975c0,.156-.013.308-.03.463-.031.338-.032.676-.033,1.016v.108a27.3,27.3,0,0,0,.3,3.65l.013.1.013.1c.035.261.059.522.077.784l-.138.035a3.786,3.786,0,0,0-2.107,1.346l-.064.078a2.066,2.066,0,0,0-.275,1.186q-.008.121-.016.242-.021.318-.039.635c-.013.215-.027.43-.04.645q-.023.363-.045.726l-.007.112q-.006.1-.012.2l-.006.093,0,.079c-.013.148-.033.3-.052.444l-.043.863h-7.08c-.151-2.458-.151-2.458-.2-3.233-.015-.23-.015-.23-.03-.46q-.01-.153-.018-.306c-.008-.155-.019-.31-.03-.465l-.006-.137a1.044,1.044,0,0,0-.41-.752q-.1-.119-.192-.24a2.655,2.655,0,0,0-1.8-1.042L-224,8.937c.025-.412.075-.818.131-1.227a26.254,26.254,0,0,0,.268-3.554c0-.032,0-.065,0-.1a10.791,10.791,0,0,0-.054-1.079,3,3,0,0,1,.609-2.1,2.873,2.873,0,0,1,1.809-.834h.345V10.4h6.562Z" transform="translate(294.367 18.003)"/>
    <path id="Path_2" data-name="Path 2" d="M-36.795-.022h3.556A1.391,1.391,0,0,1-32.3.262l.079.069a1.5,1.5,0,0,1,.315.853l.015.124q.016.143.032.286.02.187.042.374.033.281.064.562.012.113.026.225c.012.107.024.214.035.321l.012.1a1.355,1.355,0,0,1-.146.8,1.237,1.237,0,0,1-.848.52c-.1,0-.206,0-.309,0l-.367-.008v.95h.993V9.881h-5.44V5.434h.993v-.95l-.383.014a1.208,1.208,0,0,1-.959-.313,1.029,1.029,0,0,1-.312-.81v-.1a12.53,12.53,0,0,1,.113-1.3c.018-.146.034-.291.051-.437l.034-.281.014-.13a1.268,1.268,0,0,1,.388-.858l.077-.071A1.818,1.818,0,0,1-36.795-.022Zm.641,4.507v.95H-34v-.95Z" transform="translate(111.831 12.612)"/>
    <path id="Path_3" data-name="Path 3" d="M0,0H5.44V4.792H0Z" transform="translate(74.036 23.054)"/>
    <path id="Path_4" data-name="Path 4" d="M-63.874-9.793c.089.08.173.165.258.251q.066.066.133.131a1.976,1.976,0,0,1,.519,1.549q.008.143.017.287.018.291.032.583c.014.264.033.527.054.79l.01.12.019.232.009.111.009.107c.039.491.052.977.045,1.469a3.825,3.825,0,0,1-2.812-.869A4.066,4.066,0,0,1-66.754-7.77a2.532,2.532,0,0,1,.685-1.952,2.274,2.274,0,0,1,.537-.355l.085-.043A1.451,1.451,0,0,1-63.874-9.793Z" transform="translate(135.425 37.707)"/>
    <path id="Path_5" data-name="Path 5" d="M-66.053-5.54a2.327,2.327,0,0,1,.95,1.468,4.34,4.34,0,0,1-.82,3.108,3.464,3.464,0,0,1-.993.82l-.109.06a4.3,4.3,0,0,1-2.006.372c-.007-.569.013-1.132.054-1.7l.017-.244q.017-.253.035-.505.023-.323.045-.645.017-.251.035-.5.008-.119.016-.238.011-.166.024-.332l.006-.1a1.718,1.718,0,0,1,.666-1.242A1.649,1.649,0,0,1-66.053-5.54Z" transform="translate(149.889 33.3)"/>
  </g>
</svg>
