<svg width="25" height="18" viewBox="0 0 25 18" fill="none" xmlns="http://www.w3.org/2000/svg">
<path d="M10.0459 1.54067C10.5311 1.92436 10.9033 2.43236 11.1229 3.01067L11.2319 2.96467C12.0097 2.68033 12.8656 2.69674 13.6319 3.01067L13.6869 2.87267C14.0412 2.06056 14.6959 1.41698 15.5139 1.07667C16.3011 0.780282 17.1705 0.788485 17.9519 1.09967C18.7863 1.5132 19.4525 2.20196 19.8379 3.04967L20.0319 3.39667L20.1319 3.57167C20.2739 3.82967 20.4229 4.08667 20.5659 4.34667C20.8032 4.76601 21.0396 5.18601 21.2749 5.60667C21.5102 6.02734 21.7432 6.44401 21.9739 6.85667L22.0479 6.98867C22.2465 7.37717 22.4975 7.73654 22.7939 8.05667C23.7069 9.09484 24.1919 10.4408 24.1509 11.8227C24.1022 13.2034 23.5402 14.5163 22.5749 15.5047L22.4749 15.6137C21.7696 16.3161 20.8795 16.804 19.9079 17.0207L19.7699 17.0567C18.9316 17.2254 18.0655 17.1952 17.2409 16.9687L17.0469 16.9147C16.2669 16.6705 15.5486 16.2612 14.9409 15.7147L14.8209 15.6147C13.9818 14.8042 13.4364 13.7375 13.2709 12.5827C12.6848 12.4616 12.0801 12.4616 11.4939 12.5827L11.4709 12.7157C11.2049 14.1371 10.3851 15.3946 9.19191 16.2117C7.96505 17.015 6.47809 17.3204 5.03391 17.0657C4.07267 16.8671 3.18073 16.4187 2.44791 15.7657L2.37091 15.6957C1.29551 14.7012 0.659187 13.3203 0.601913 11.8567C0.547111 10.486 1.02316 9.14709 1.93091 8.11867L2.04591 7.99767C2.28119 7.72853 2.48114 7.43046 2.64091 7.11067L2.83491 6.76267L2.93491 6.58467C3.08691 6.30467 3.24391 6.02667 3.39991 5.74867L3.58291 5.42167C3.81158 5.01367 4.04158 4.60601 4.27291 4.19867C4.39025 3.99201 4.50691 3.78501 4.62291 3.57767L4.71391 3.41567L4.87291 3.11567C5.08783 2.6229 5.40054 2.17889 5.79211 1.81053C6.18368 1.44216 6.64595 1.15713 7.15091 0.972674C7.64542 0.837931 8.16435 0.819083 8.66733 0.917598C9.17031 1.01611 9.64378 1.22933 10.0509 1.54067M11.4359 4.89367C11.3248 5.09133 11.2849 5.32114 11.3229 5.54467V5.69067C11.3229 5.84267 11.3309 5.99067 11.3359 6.14667C11.3359 6.23867 11.3359 6.33167 11.3429 6.42467C11.3509 6.70767 11.3599 6.98967 11.3699 7.27167L11.3809 7.57967C11.3899 7.84567 11.3989 8.11167 11.4089 8.37967C11.4189 8.64767 11.4279 8.91967 11.4369 9.19967C11.4556 9.73301 11.4742 10.2663 11.4929 10.7997L11.6019 10.7877L11.7579 10.7727L11.9119 10.7577C12.3615 10.7162 12.8145 10.7296 13.2609 10.7977C13.2999 10.6599 13.3218 10.5178 13.3259 10.3747V9.95667L13.3409 9.47167L13.3519 9.13467C13.3589 8.89967 13.3669 8.66367 13.3729 8.42867C13.3819 8.12867 13.3909 7.82867 13.3999 7.52867L13.4259 6.66567C13.4259 6.61167 13.4259 6.55567 13.4259 6.49967C13.4259 6.34367 13.4349 6.18867 13.4399 6.03267V5.89467C13.4399 5.76567 13.4469 5.63967 13.4499 5.51667V5.14467C13.4499 5.03367 13.4499 5.03367 13.3499 4.91267L13.2249 4.81267L13.1019 4.71267C12.8407 4.54465 12.53 4.47054 12.221 4.50253C11.9121 4.53452 11.6232 4.6707 11.4019 4.88867M3.34991 9.08867C3.01464 9.45217 2.75527 9.87891 2.58699 10.3439C2.41872 10.8089 2.34492 11.3028 2.36991 11.7967C2.3771 12.2446 2.47366 12.6866 2.65391 13.0967L2.71491 13.2457C2.87416 13.5752 3.08254 13.8787 3.33291 14.1457L3.44091 14.2687C3.96159 14.7962 4.62729 15.157 5.35347 15.3054C6.07965 15.4537 6.83354 15.3829 7.51939 15.1019C8.20525 14.821 8.79212 14.3425 9.20547 13.7273C9.61882 13.112 9.84 12.3879 9.84091 11.6467C9.83854 11.1367 9.73415 10.6324 9.53391 10.1633C9.33366 9.69432 9.0416 9.27011 8.67491 8.91567C7.94269 8.23608 6.97148 7.87352 5.97303 7.90705C4.97459 7.94058 4.0299 8.36748 3.34491 9.09467M15.8899 9.09467C15.5546 9.45817 15.2953 9.88491 15.127 10.3499C14.9587 10.8149 14.8849 11.3088 14.9099 11.8027C14.9171 12.2506 15.0137 12.6926 15.1939 13.1027L15.2549 13.2517C15.4142 13.5812 15.6225 13.8847 15.8729 14.1517L15.9809 14.2747C16.5087 14.8075 17.184 15.1701 17.9197 15.3155C18.6555 15.4609 19.4179 15.3825 20.1087 15.0905C20.7995 14.7985 21.387 14.3062 21.7953 13.6771C22.2037 13.0481 22.4142 12.3111 22.3997 11.5612C22.3852 10.8114 22.1464 10.0831 21.7141 9.47023C21.2817 8.8574 20.6757 8.38816 19.9742 8.12303C19.2726 7.8579 18.5077 7.80905 17.7781 7.98277C17.0485 8.15649 16.3877 8.54482 15.8809 9.09767" stroke="#848A90" stroke-width="1.2"/>
</svg>
