<svg width="34" height="32" viewBox="0 0 34 32" fill="none" xmlns="http://www.w3.org/2000/svg">
<path d="M33.148 16C33.148 7.16344 25.82 0 16.7805 0C7.74104 0 0.413086 7.16344 0.413086 16C0.413086 24.8366 7.74104 32 16.7805 32C25.82 32 33.148 24.8366 33.148 16Z" fill="#FFEEEE"/>
<path d="M22.4692 11.1029C22.1405 10.7815 21.7503 10.5265 21.3208 10.3525C20.8913 10.1786 20.4309 10.0891 19.966 10.0891C19.5011 10.0891 19.0408 10.1786 18.6113 10.3525C18.1817 10.5265 17.7915 10.7815 17.4628 11.1029L16.7826 11.7699L16.1002 11.1029C15.7734 10.7733 15.3828 10.5105 14.951 10.3299C14.5193 10.1493 14.0552 10.0545 13.5856 10.0509C13.1161 10.0473 12.6505 10.1351 12.2159 10.3091C11.7814 10.4831 11.3866 10.7399 11.0546 11.0645C10.7225 11.3891 10.4598 11.775 10.2818 12.1998C10.1038 12.6245 10.014 13.0797 10.0177 13.5387C10.0213 13.9977 10.1184 14.4515 10.3031 14.8735C10.4879 15.2955 10.7567 15.6774 11.0938 15.9969L11.77 16.6639L16.7826 21.5589L21.7889 16.6649L22.4713 15.9979C22.8001 15.6766 23.0609 15.2951 23.2388 14.8752C23.4168 14.4554 23.5084 14.0054 23.5084 13.5509C23.5084 13.0964 23.4168 12.6464 23.2388 12.2265C23.0609 11.8067 22.8001 11.4252 22.4713 11.1039L22.4692 11.1029Z" stroke="#CE383B" stroke-width="2" stroke-linecap="round" stroke-linejoin="round"/>
</svg>
