<svg width="16" height="14" viewBox="0 0 16 14" fill="none" xmlns="http://www.w3.org/2000/svg">
<path fill-rule="evenodd" clip-rule="evenodd" d="M14.0704 7.03836C14.6596 6.43986 14.987 5.6318 14.9804 4.79195C14.9738 3.9521 14.6339 3.14925 14.0354 2.56003C13.7391 2.26828 13.3881 2.03775 13.0027 1.88161C12.6173 1.72548 12.2048 1.64679 11.789 1.65004C10.9491 1.6566 10.1463 1.99652 9.55708 2.59503C9.39708 2.75503 9.19374 2.95142 8.94708 3.1842L8.26124 3.83003L7.57541 3.1842C7.32819 2.95086 7.12458 2.75447 6.96458 2.59503C6.37071 2.00117 5.56526 1.66754 4.72541 1.66754C3.88556 1.66754 3.08011 2.00117 2.48624 2.59503C1.26291 3.8192 1.24874 5.79836 2.44124 7.02836L8.26124 12.8484L14.0704 7.03836ZM1.77874 1.88836C2.16567 1.50134 2.62505 1.19432 3.13064 0.98486C3.63624 0.775397 4.17814 0.667586 4.72541 0.667586C5.27268 0.667586 5.81458 0.775397 6.32018 0.98486C6.82577 1.19432 7.28515 1.50134 7.67208 1.88836C7.82374 2.04059 8.02013 2.23003 8.26124 2.4567C8.50124 2.23003 8.69763 2.04031 8.85041 1.88753C9.62584 1.10017 10.6823 0.653092 11.7873 0.644653C12.8924 0.636214 13.9555 1.0671 14.7429 1.84253C15.5303 2.61796 15.9773 3.6744 15.9858 4.77946C15.9942 5.88452 15.5633 6.94767 14.7879 7.73503L8.85041 13.6734C8.69414 13.8296 8.48221 13.9174 8.26124 13.9174C8.04027 13.9174 7.82835 13.8296 7.67208 13.6734L1.73291 7.7342C0.971278 6.9487 0.54917 5.89514 0.557745 4.80106C0.566321 3.70697 1.00489 2.66016 1.77874 1.8867V1.88836Z" fill="#127729"/>
</svg>
