<svg width="15" height="15" viewBox="0 0 15 15" fill="none" xmlns="http://www.w3.org/2000/svg">
<path d="M0.750035 14.3751C0.649143 14.3768 0.549329 14.3541 0.459125 14.3089C0.368921 14.2636 0.29101 14.1972 0.232049 14.1154C0.173088 14.0335 0.134832 13.9385 0.12055 13.8386C0.106268 13.7387 0.116384 13.6369 0.150035 13.5417L1.48337 9.16674C1.19392 8.4143 1.04698 7.61459 1.05004 6.80841C1.0487 5.9215 1.22436 5.04324 1.5667 4.22507C1.90217 3.44194 2.38285 2.7294 2.98337 2.12507C3.58614 1.51879 4.3026 1.03738 5.0917 0.708406C5.90747 0.36208 6.78463 0.183594 7.67087 0.183594C8.55711 0.183594 9.43427 0.36208 10.25 0.708406C11.4451 1.22032 12.4645 2.07051 13.1826 3.15433C13.9007 4.23815 14.2862 5.50829 14.2917 6.80841C14.2865 8.5643 13.5888 10.2473 12.35 11.4917C11.7457 12.0923 11.0332 12.5729 10.25 12.9084C8.67433 13.5683 6.90543 13.5981 5.30837 12.9917L0.933368 14.3251C0.874958 14.3504 0.81322 14.3672 0.750035 14.3751ZM7.6667 1.45841C6.61124 1.46297 5.58018 1.77627 4.70061 2.35969C3.82104 2.94311 3.1314 3.77115 2.7167 4.74174C2.16574 6.07599 2.16574 7.57416 2.7167 8.90841C2.76635 9.04572 2.76635 9.19609 2.7167 9.33341L1.6917 12.8084L5.15003 11.7584C5.28735 11.7088 5.43772 11.7088 5.57504 11.7584C6.23539 12.0326 6.94336 12.1737 7.65837 12.1737C8.37337 12.1737 9.08135 12.0326 9.7417 11.7584C10.3924 11.4845 10.9826 11.0849 11.4785 10.5825C11.9745 10.0801 12.3665 9.48479 12.632 8.83066C12.8975 8.17654 13.0314 7.47646 13.0259 6.77052C13.0204 6.06458 12.8757 5.36666 12.6 4.71674C12.1862 3.75086 11.4984 2.92746 10.6216 2.34835C9.7448 1.76925 8.71748 1.45984 7.6667 1.45841Z" fill="#127729"/>
</svg>
