<svg width="17" height="16" viewBox="0 0 17 16" fill="none" xmlns="http://www.w3.org/2000/svg">
<path d="M15.1201 3.37942C15.3409 3.37327 15.5604 3.41516 15.7634 3.50218C15.9665 3.5892 16.1482 3.71927 16.296 3.88341C16.4537 4.03631 16.5794 4.219 16.6659 4.42087C16.7524 4.62274 16.798 4.83975 16.8 5.05937V14.299C16.7892 14.7412 16.6087 15.1622 16.296 15.475C15.9832 15.7877 15.5622 15.9682 15.1201 15.979H1.67994C1.45912 15.9852 1.23958 15.9433 1.03653 15.8563C0.833488 15.7693 0.651777 15.6392 0.503973 15.475C0.346281 15.3221 0.220542 15.1395 0.134026 14.9376C0.0475097 14.7357 0.00194968 14.5186 0 14.299V5.05937C0.0108015 4.61722 0.191251 4.19615 0.50399 3.88341C0.81673 3.57067 1.2378 3.39022 1.67994 3.37942H4.19984V1.69948C4.19369 1.47866 4.23557 1.25911 4.32258 1.05607C4.4096 0.853026 4.53969 0.671351 4.70383 0.523522C4.85669 0.365805 5.03936 0.240058 5.24124 0.153539C5.44311 0.0670213 5.66016 0.0214487 5.87979 0.0195312H10.9196C11.3618 0.0303328 11.7828 0.210782 12.0956 0.523522C12.4083 0.836261 12.5888 1.25733 12.5996 1.69948V3.37942H15.1201ZM15.1201 10.0992V5.05937H12.5996V6.73931H10.9196V5.05937H5.87979V6.73931H4.19984V5.05937H1.67994V10.0992H15.1201ZM15.1201 14.299V12.6191H1.67994V14.299H15.1201ZM5.87979 1.69948V3.37942H10.9196V1.69948H5.87979Z" fill="#127729"/>
</svg>
