<svg xmlns="http://www.w3.org/2000/svg" width="18" height="18" viewBox="0 0 18 18">
  <g id="Frame" transform="translate(0)">
    <rect id="Frame_Frame_Background_" data-name="Frame [Frame Background]" width="18" height="18" transform="translate(0)" fill="none"/>
    <path id="Vector" d="M8.331,8.852a.521.521,0,0,1-.521.521H3.645a.521.521,0,1,1,0-1.041H7.811a.521.521,0,0,1,.521.521ZM8.179,6.4a.521.521,0,0,1-.368.889H3.645a.521.521,0,0,1,0-1.041H7.811A.521.521,0,0,1,8.179,6.4Zm3.277-4.318V13.017a1.041,1.041,0,0,1-1.041,1.041H1.041A1.041,1.041,0,0,1,0,13.017V2.083A1.041,1.041,0,0,1,1.041,1.041H3.4a3.119,3.119,0,0,1,4.652,0h2.36a1.041,1.041,0,0,1,1.041,1.041ZM3.645,3.124H7.811a2.083,2.083,0,0,0-4.166,0Zm6.769-1.041H8.673a3.119,3.119,0,0,1,.179,1.041v.521a.521.521,0,0,1-.521.521H3.124A.521.521,0,0,1,2.6,3.645V3.124a3.12,3.12,0,0,1,.179-1.041H1.041V13.017h9.373Z" transform="translate(3.272 1.71)" fill="#f7905a"/>
  </g>
</svg>
