<svg id="Frame" xmlns="http://www.w3.org/2000/svg" width="24" height="24" viewBox="0 0 24 24">
  <rect id="Frame_Frame_Background_" data-name="Frame [Frame Background]" width="24" height="24" fill="none"/>
  <path id="Vector" d="M17.887,8.425A1.488,1.488,0,0,1,18,9v9a.75.75,0,0,1-.75.75h-6A.75.75,0,0,1,10.5,18V12.75h-3V18a.75.75,0,0,1-.75.75h-6A.75.75,0,0,1,0,18V9A1.488,1.488,0,0,1,.44,7.939l7.5-7.5a1.5,1.5,0,0,1,2.121,0l7.5,7.5a1.488,1.488,0,0,1,.326.486ZM16.5,9,9,1.5,1.5,9v8.25H6V12a.75.75,0,0,1,.75-.75h4.5A.75.75,0,0,1,12,12v5.25h4.5Z" transform="translate(3 2.25)" fill="#9f3"/>
</svg>
