<svg width="18" height="17" viewBox="0 0 18 17" fill="none" xmlns="http://www.w3.org/2000/svg">
<g clip-path="url(#clip0_101_7289)">
<path d="M15.0816 13.36C14.7284 12.2478 13.9648 11.312 12.9461 10.7428C12.1313 10.1728 11.4374 9.44702 10.9046 8.60734C10.7036 8.33004 10.4484 8.09636 10.1545 7.92043C9.86067 7.7445 9.53418 7.62996 9.1948 7.58373C8.85542 7.53751 8.51019 7.56056 8.17996 7.65148C7.84974 7.74241 7.54137 7.89933 7.27349 8.11277C6.53974 8.66286 6.17415 9.51705 5.46603 10.0774C4.70242 10.5417 3.97743 11.0667 3.29811 11.6474C3.08536 11.889 2.91237 12.1629 2.7856 12.4589C2.65209 12.7505 2.55622 13.0579 2.5003 13.3737C2.38334 13.8521 2.44871 14.357 2.68369 14.7898C2.91867 15.2226 3.30641 15.5525 3.77133 15.715C4.72197 15.965 5.7271 15.91 6.64481 15.5578C7.1916 15.3091 7.76114 15.1137 8.34549 14.9744C9.21325 14.9403 10.0747 15.1353 10.8431 15.5399C11.5982 15.8364 12.4157 15.9377 13.2203 15.8346C13.5929 15.8001 13.95 15.6689 14.2564 15.4541C14.5627 15.2393 14.8077 14.9482 14.9671 14.6097C15.1246 14.2135 15.1658 13.7805 15.0859 13.3617" stroke="#646464"/>
<path d="M4.38879 6.92377C4.31564 6.65232 4.20556 6.39221 4.06163 6.15073C3.90157 5.87309 3.69992 5.62161 3.4637 5.40503C3.34742 5.29997 3.22256 5.20483 3.09042 5.12058C2.95982 5.03151 2.81791 4.96027 2.66846 4.90874C2.56428 4.8756 2.4564 4.85552 2.34728 4.84895C2.23794 4.83884 2.12768 4.84692 2.02098 4.87287C1.88386 4.90616 1.75392 4.96404 1.63746 5.04371C1.40135 5.2123 1.20965 5.43565 1.07882 5.69459C1.00893 5.83008 0.947035 5.96956 0.893461 6.11229C0.836515 6.26491 0.782132 6.41923 0.730311 6.57526C0.51852 7.22114 0.416033 7.89784 0.427076 8.57747C0.431964 8.74101 0.446223 8.90415 0.469785 9.06606C0.488206 9.21135 0.521114 9.35442 0.568016 9.49315C0.651296 9.7272 0.791977 9.93661 0.977171 10.1022C1.16342 10.2569 1.38016 10.3706 1.61329 10.4359C1.84641 10.5013 2.09068 10.5168 2.3302 10.4814C2.84483 10.4103 3.31881 10.1627 3.67127 9.78101C4.01941 9.40236 4.26365 8.94007 4.38024 8.43909C4.50503 7.94306 4.50679 7.42405 4.38537 6.92718" stroke="#646464"/>
<path d="M8.11048 2.74508C8.04074 2.06441 7.73917 1.42839 7.2563 0.943608C7.04321 0.736316 6.77728 0.591533 6.48753 0.525058C6.25388 0.471549 6.00904 0.498018 5.79222 0.600226C5.20075 1.03848 4.79072 1.6786 4.63993 2.39914C4.45774 3.00276 4.43492 3.64327 4.57368 4.25833C4.71243 4.87339 5.00805 5.44205 5.43176 5.90899C5.64715 6.17519 5.94969 6.35672 6.28594 6.4215C6.50677 6.42672 6.72502 6.37315 6.91834 6.26629C7.11166 6.15942 7.2731 6.0031 7.38613 5.81332C7.86381 5.02398 8.12158 4.12121 8.13269 3.19866C8.1346 3.04708 8.12633 2.89555 8.10792 2.74508" stroke="#646464"/>
<path d="M13.1903 8.4352C13.3068 8.93621 13.551 9.39852 13.8992 9.77713C14.2517 10.1589 14.7257 10.4064 15.2403 10.4776C15.4798 10.513 15.7241 10.4975 15.9572 10.4321C16.1904 10.3668 16.4071 10.253 16.5934 10.0983C16.7786 9.93275 16.9193 9.72333 17.0025 9.48927C17.0494 9.35053 17.0823 9.20745 17.1007 9.06218C17.1244 8.90027 17.1386 8.73713 17.1434 8.57358C17.1555 7.89381 17.0538 7.2168 16.8428 6.57052C16.7938 6.41449 16.7394 6.26016 16.6796 6.10755C16.626 5.96483 16.5641 5.82536 16.4943 5.68985C16.3635 5.4311 16.1718 5.20802 15.9356 5.03982C15.8192 4.96012 15.6892 4.90223 15.5521 4.86898C15.4454 4.843 15.3351 4.83492 15.2258 4.84506C15.1167 4.8516 15.0088 4.87168 14.9046 4.90486C14.7552 4.95645 14.6133 5.02769 14.4827 5.1167C14.3505 5.20097 14.2257 5.29611 14.1094 5.40114C13.8732 5.61775 13.6716 5.86923 13.5115 6.14684C13.3675 6.38831 13.2574 6.64842 13.1843 6.91988C13.0628 7.41674 13.0646 7.93576 13.1894 8.43179" stroke="#646464"/>
<path d="M9.43872 3.19772C9.44983 4.12028 9.7076 5.02305 10.1853 5.81238C10.2983 6.00216 10.4598 6.15849 10.6531 6.26536C10.8464 6.37222 11.0646 6.42579 11.2855 6.42056C11.6217 6.35579 11.9243 6.17426 12.1397 5.90805C12.5637 5.44129 12.8596 4.8727 12.9986 4.25763C13.1377 3.64257 13.1152 3.00197 12.9332 2.39821C12.7835 1.67831 12.375 1.03828 11.7852 0.599294C11.5684 0.497022 11.3235 0.470549 11.0899 0.524125C10.8001 0.590601 10.5342 0.735384 10.3211 0.942676C9.83822 1.42746 9.53665 2.06348 9.46691 2.74415C9.4485 2.89433 9.44022 3.04558 9.44214 3.19687" stroke="#646464"/>
</g>
<defs>
<clipPath id="clip0_101_7289">
<rect width="17.574" height="16.2449" fill="white" transform="translate(0 0.0693359)"/>
</clipPath>
</defs>
</svg>
