<svg width="34" height="32" viewBox="0 0 34 32" fill="none" xmlns="http://www.w3.org/2000/svg">
<path d="M33.1099 16C33.1099 7.16344 25.7819 0 16.7425 0C7.70296 0 0.375 7.16344 0.375 16C0.375 24.8366 7.70296 32 16.7425 32C25.7819 32 33.1099 24.8366 33.1099 16Z" fill="#FFF4EE"/>
<path d="M19.4051 17.563C19.4051 17.7012 19.349 17.8337 19.249 17.9314C19.1491 18.0291 19.0135 18.084 18.8722 18.084H14.6115C14.5396 18.0871 14.4679 18.0759 14.4005 18.0511C14.3332 18.0263 14.2716 17.9885 14.2197 17.9399C14.1677 17.8912 14.1263 17.8328 14.098 17.7681C14.0698 17.7034 14.0552 17.6338 14.0552 17.5635C14.0552 17.4931 14.0698 17.4235 14.098 17.3588C14.1263 17.2942 14.1677 17.2357 14.2197 17.1871C14.2716 17.1385 14.3332 17.1006 14.4005 17.0759C14.4679 17.0511 14.5396 17.0399 14.6115 17.043H18.8732C18.9432 17.043 19.0125 17.0565 19.0772 17.0826C19.1418 17.1088 19.2006 17.1472 19.2501 17.1956C19.2996 17.244 19.3388 17.3014 19.3656 17.3646C19.3924 17.4278 19.4062 17.4956 19.4062 17.564L19.4051 17.563ZM19.2497 15.111C19.324 15.1838 19.3747 15.2766 19.3951 15.3776C19.4156 15.4785 19.4051 15.5832 19.3648 15.6783C19.3245 15.7734 19.2564 15.8547 19.1689 15.9119C19.0814 15.9692 18.9785 15.9998 18.8732 16H14.6115C14.4743 15.9941 14.3448 15.9367 14.2498 15.8397C14.1549 15.7428 14.1019 15.6137 14.1019 15.4795C14.1019 15.3453 14.1549 15.2162 14.2498 15.1192C14.3448 15.0223 14.4743 14.9649 14.6115 14.959H18.8732C19.0143 14.9589 19.1497 15.0136 19.2497 15.111ZM22.6019 10.793V21.728C22.6019 22.0041 22.4897 22.2689 22.29 22.4641C22.0903 22.6593 21.8194 22.769 21.537 22.769H11.9477C11.6653 22.769 11.3944 22.6593 11.1947 22.4641C10.995 22.2689 10.8828 22.0041 10.8828 21.728V10.794C10.8827 10.6572 10.9101 10.5217 10.9636 10.3953C11.017 10.2689 11.0955 10.154 11.1944 10.0572C11.2933 9.96047 11.4107 9.8837 11.54 9.83132C11.6692 9.77894 11.8078 9.75199 11.9477 9.75199H14.3609C14.6602 9.42449 15.0268 9.16247 15.4369 8.98307C15.8469 8.80367 16.2911 8.71094 16.7403 8.71094C17.1895 8.71094 17.6337 8.80367 18.0438 8.98307C18.4538 9.16247 18.8204 9.42449 19.1197 9.75199H21.5339C21.6738 9.75199 21.8123 9.77891 21.9415 9.83123C22.0707 9.88354 22.1881 9.96022 22.2869 10.0569C22.3858 10.1536 22.4643 10.2683 22.5178 10.3946C22.5713 10.5209 22.5988 10.6563 22.5988 10.793H22.6019ZM14.6115 11.835H18.8732C18.8732 11.2825 18.6487 10.7527 18.2491 10.3621C17.8495 9.97144 17.3075 9.75199 16.7424 9.75199C16.1772 9.75199 15.6352 9.97144 15.2356 10.3621C14.836 10.7527 14.6115 11.2825 14.6115 11.835ZM21.536 10.794H19.755C19.8761 11.1283 19.9381 11.4803 19.9381 11.835V12.356C19.9381 12.4244 19.9243 12.4922 19.8975 12.5554C19.8708 12.6186 19.8315 12.676 19.782 12.7244C19.7325 12.7728 19.6738 12.8111 19.6091 12.8373C19.5444 12.8635 19.4751 12.877 19.4051 12.877H14.0786C14.0083 12.8774 13.9387 12.8642 13.8737 12.8382C13.8086 12.8122 13.7495 12.7739 13.6997 12.7255C13.6499 12.677 13.6104 12.6195 13.5834 12.5561C13.5564 12.4927 13.5425 12.4247 13.5425 12.356V11.835C13.5426 11.4803 13.6045 11.1283 13.7256 10.794H11.9477V21.728H21.536V10.794Z" fill="#F7905A"/>
</svg>
