<svg width="157" height="24" viewBox="0 0 157 24" fill="none" xmlns="http://www.w3.org/2000/svg">
<rect width="157" height="24" rx="5" fill="#FFDDDD" fill-opacity="0.7"/>
<path d="M13.1313 10.216C13.1313 10.664 13.0233 11.084 12.8073 11.476C12.5993 11.868 12.2673 12.184 11.8113 12.424C11.3633 12.664 10.7953 12.784 10.1073 12.784H8.70331V16H7.02331V7.624H10.1073C10.7553 7.624 11.3073 7.736 11.7633 7.96C12.2193 8.184 12.5593 8.492 12.7833 8.884C13.0153 9.276 13.1313 9.72 13.1313 10.216ZM10.0353 11.428C10.4993 11.428 10.8433 11.324 11.0673 11.116C11.2913 10.9 11.4033 10.6 11.4033 10.216C11.4033 9.4 10.9473 8.992 10.0353 8.992H8.70331V11.428H10.0353ZM16.0041 8.98V11.08H18.8241V12.412H16.0041V14.632H19.1841V16H14.3241V7.612H19.1841V8.98H16.0041ZM27.8748 16H26.1948L22.3908 10.252V16H20.7108V7.612H22.3908L26.1948 13.372V7.612H27.8748V16ZM32.463 7.624C33.343 7.624 34.115 7.796 34.779 8.14C35.451 8.484 35.967 8.976 36.327 9.616C36.695 10.248 36.879 10.984 36.879 11.824C36.879 12.664 36.695 13.4 36.327 14.032C35.967 14.656 35.451 15.14 34.779 15.484C34.115 15.828 33.343 16 32.463 16H29.535V7.624H32.463ZM32.403 14.572C33.283 14.572 33.963 14.332 34.443 13.852C34.923 13.372 35.163 12.696 35.163 11.824C35.163 10.952 34.923 10.272 34.443 9.784C33.963 9.288 33.283 9.04 32.403 9.04H31.215V14.572H32.403ZM39.8166 7.624V16H38.1366V7.624H39.8166ZM48.6404 16H46.9604L43.1564 10.252V16H41.4764V7.612H43.1564L46.9604 13.372V7.612H48.6404V16ZM56.1327 10.144C55.9407 9.792 55.6767 9.524 55.3407 9.34C55.0047 9.156 54.6127 9.064 54.1647 9.064C53.6687 9.064 53.2287 9.176 52.8447 9.4C52.4607 9.624 52.1607 9.944 51.9447 10.36C51.7287 10.776 51.6207 11.256 51.6207 11.8C51.6207 12.36 51.7287 12.848 51.9447 13.264C52.1687 13.68 52.4767 14 52.8687 14.224C53.2607 14.448 53.7167 14.56 54.2367 14.56C54.8767 14.56 55.4007 14.392 55.8087 14.056C56.2167 13.712 56.4847 13.236 56.6127 12.628H53.7327V11.344H58.2687V12.808C58.1567 13.392 57.9167 13.932 57.5487 14.428C57.1807 14.924 56.7047 15.324 56.1207 15.628C55.5447 15.924 54.8967 16.072 54.1767 16.072C53.3687 16.072 52.6367 15.892 51.9807 15.532C51.3327 15.164 50.8207 14.656 50.4447 14.008C50.0767 13.36 49.8927 12.624 49.8927 11.8C49.8927 10.976 50.0767 10.24 50.4447 9.592C50.8207 8.936 51.3327 8.428 51.9807 8.068C52.6367 7.7 53.3647 7.516 54.1647 7.516C55.1087 7.516 55.9287 7.748 56.6247 8.212C57.3207 8.668 57.8007 9.312 58.0647 10.144H56.1327ZM67.543 7.624V8.98H64.051V11.128H66.727V12.46H64.051V16H62.371V7.624H67.543ZM72.6223 16.084C71.8383 16.084 71.1183 15.9 70.4623 15.532C69.8063 15.164 69.2863 14.656 68.9023 14.008C68.5183 13.352 68.3263 12.612 68.3263 11.788C68.3263 10.972 68.5183 10.24 68.9023 9.592C69.2863 8.936 69.8063 8.424 70.4623 8.056C71.1183 7.688 71.8383 7.504 72.6223 7.504C73.4143 7.504 74.1343 7.688 74.7823 8.056C75.4383 8.424 75.9543 8.936 76.3303 9.592C76.7143 10.24 76.9063 10.972 76.9063 11.788C76.9063 12.612 76.7143 13.352 76.3303 14.008C75.9543 14.656 75.4383 15.164 74.7823 15.532C74.1263 15.9 73.4063 16.084 72.6223 16.084ZM72.6223 14.584C73.1263 14.584 73.5703 14.472 73.9543 14.248C74.3383 14.016 74.6383 13.688 74.8543 13.264C75.0703 12.84 75.1783 12.348 75.1783 11.788C75.1783 11.228 75.0703 10.74 74.8543 10.324C74.6383 9.9 74.3383 9.576 73.9543 9.352C73.5703 9.128 73.1263 9.016 72.6223 9.016C72.1183 9.016 71.6703 9.128 71.2783 9.352C70.8943 9.576 70.5943 9.9 70.3783 10.324C70.1623 10.74 70.0543 11.228 70.0543 11.788C70.0543 12.348 70.1623 12.84 70.3783 13.264C70.5943 13.688 70.8943 14.016 71.2783 14.248C71.6703 14.472 72.1183 14.584 72.6223 14.584ZM82.4761 16L80.6281 12.736H79.8361V16H78.1561V7.624H81.3001C81.9481 7.624 82.5001 7.74 82.9561 7.972C83.4121 8.196 83.7521 8.504 83.9761 8.896C84.2081 9.28 84.3241 9.712 84.3241 10.192C84.3241 10.744 84.1641 11.244 83.8441 11.692C83.5241 12.132 83.0481 12.436 82.4161 12.604L84.4201 16H82.4761ZM79.8361 11.476H81.2401C81.6961 11.476 82.0361 11.368 82.2601 11.152C82.4841 10.928 82.5961 10.62 82.5961 10.228C82.5961 9.844 82.4841 9.548 82.2601 9.34C82.0361 9.124 81.6961 9.016 81.2401 9.016H79.8361V11.476ZM93.839 14.404H90.503L89.951 16H88.187L91.199 7.612H93.155L96.167 16H94.391L93.839 14.404ZM93.383 13.06L92.171 9.556L90.959 13.06H93.383ZM103.401 10.216C103.401 10.664 103.293 11.084 103.077 11.476C102.869 11.868 102.537 12.184 102.081 12.424C101.633 12.664 101.065 12.784 100.377 12.784H98.9728V16H97.2928V7.624H100.377C101.025 7.624 101.577 7.736 102.033 7.96C102.489 8.184 102.829 8.492 103.053 8.884C103.285 9.276 103.401 9.72 103.401 10.216ZM100.305 11.428C100.769 11.428 101.113 11.324 101.337 11.116C101.561 10.9 101.673 10.6 101.673 10.216C101.673 9.4 101.217 8.992 100.305 8.992H98.9728V11.428H100.305ZM110.702 10.216C110.702 10.664 110.594 11.084 110.378 11.476C110.17 11.868 109.838 12.184 109.382 12.424C108.934 12.664 108.366 12.784 107.678 12.784H106.274V16H104.594V7.624H107.678C108.326 7.624 108.878 7.736 109.334 7.96C109.79 8.184 110.13 8.492 110.354 8.884C110.586 9.276 110.702 9.72 110.702 10.216ZM107.606 11.428C108.07 11.428 108.414 11.324 108.638 11.116C108.862 10.9 108.974 10.6 108.974 10.216C108.974 9.4 108.518 8.992 107.606 8.992H106.274V11.428H107.606ZM116.214 16L114.366 12.736H113.574V16H111.894V7.624H115.038C115.686 7.624 116.238 7.74 116.694 7.972C117.15 8.196 117.49 8.504 117.714 8.896C117.946 9.28 118.062 9.712 118.062 10.192C118.062 10.744 117.902 11.244 117.582 11.692C117.262 12.132 116.786 12.436 116.154 12.604L118.158 16H116.214ZM113.574 11.476H114.978C115.434 11.476 115.774 11.368 115.998 11.152C116.222 10.928 116.334 10.62 116.334 10.228C116.334 9.844 116.222 9.548 115.998 9.34C115.774 9.124 115.434 9.016 114.978 9.016H113.574V11.476ZM123.47 16.084C122.686 16.084 121.966 15.9 121.31 15.532C120.654 15.164 120.134 14.656 119.75 14.008C119.366 13.352 119.174 12.612 119.174 11.788C119.174 10.972 119.366 10.24 119.75 9.592C120.134 8.936 120.654 8.424 121.31 8.056C121.966 7.688 122.686 7.504 123.47 7.504C124.262 7.504 124.982 7.688 125.63 8.056C126.286 8.424 126.802 8.936 127.178 9.592C127.562 10.24 127.754 10.972 127.754 11.788C127.754 12.612 127.562 13.352 127.178 14.008C126.802 14.656 126.286 15.164 125.63 15.532C124.974 15.9 124.254 16.084 123.47 16.084ZM123.47 14.584C123.974 14.584 124.418 14.472 124.802 14.248C125.186 14.016 125.486 13.688 125.702 13.264C125.918 12.84 126.026 12.348 126.026 11.788C126.026 11.228 125.918 10.74 125.702 10.324C125.486 9.9 125.186 9.576 124.802 9.352C124.418 9.128 123.974 9.016 123.47 9.016C122.966 9.016 122.518 9.128 122.126 9.352C121.742 9.576 121.442 9.9 121.226 10.324C121.01 10.74 120.902 11.228 120.902 11.788C120.902 12.348 121.01 12.84 121.226 13.264C121.442 13.688 121.742 14.016 122.126 14.248C122.518 14.472 122.966 14.584 123.47 14.584ZM136.528 7.624L133.456 16H131.416L128.344 7.624H130.144L132.448 14.284L134.74 7.624H136.528ZM142.671 14.404H139.335L138.783 16H137.019L140.031 7.612H141.987L144.999 16H143.223L142.671 14.404ZM142.215 13.06L141.003 9.556L139.791 13.06H142.215ZM147.805 14.668H150.565V16H146.125V7.624H147.805V14.668Z" fill="#FD5634"/>
</svg>
