<svg width="18" height="18" viewBox="0 0 18 18" fill="none" xmlns="http://www.w3.org/2000/svg">
<path d="M16 0C16.5264 0.0129335 17.0276 0.227792 17.3999 0.600098C17.7722 0.972404 17.9871 1.47364 18 2V16C17.9871 16.5264 17.7722 17.0276 17.3999 17.3999C17.0276 17.7722 16.5264 17.9871 16 18H2C1.47364 17.9871 0.972465 17.7722 0.600159 17.3999C0.227853 17.0276 0.0129335 16.5264 0 16V2C0.0129335 1.47364 0.227853 0.972404 0.600159 0.600098C0.972465 0.227792 1.47364 0.0129335 2 0H16ZM16 16V2H2V16H16ZM11 9.29999L14.5 14H3.5L6.20001 10.4L8.20001 12.8L11 9.29999Z" fill="#93989E"/>
</svg>
