<svg width="95" height="24" viewBox="0 0 95 24" fill="none" xmlns="http://www.w3.org/2000/svg">
<rect width="95" height="24" rx="5" fill="#9747FF" fill-opacity="0.2"/>
<path d="M16.7975 7.624V8.98H14.5655V16H12.8855V8.98H10.6535V7.624H16.7975ZM19.7033 8.98V11.08H22.5233V12.412H19.7033V14.632H22.8833V16H18.0233V7.612H22.8833V8.98H19.7033ZM28.73 16L26.882 12.736H26.09V16H24.41V7.624H27.554C28.202 7.624 28.754 7.74 29.21 7.972C29.666 8.196 30.006 8.504 30.23 8.896C30.462 9.28 30.578 9.712 30.578 10.192C30.578 10.744 30.418 11.244 30.098 11.692C29.778 12.132 29.302 12.436 28.67 12.604L30.674 16H28.73ZM26.09 11.476H27.494C27.95 11.476 28.29 11.368 28.514 11.152C28.738 10.928 28.85 10.62 28.85 10.228C28.85 9.844 28.738 9.548 28.514 9.34C28.29 9.124 27.95 9.016 27.494 9.016H26.09V11.476ZM41.2295 7.624V16H39.5495V10.552L37.3055 16H36.0335L33.7775 10.552V16H32.0975V7.624H34.0055L36.6695 13.852L39.3335 7.624H41.2295ZM44.5705 7.624V16H42.8905V7.624H44.5705ZM53.3943 16H51.7143L47.9103 10.252V16H46.2303V7.612H47.9103L51.7143 13.372V7.612H53.3943V16ZM60.1906 14.404H56.8546L56.3026 16H54.5386L57.5506 7.612H59.5066L62.5186 16H60.7426L60.1906 14.404ZM59.7346 13.06L58.5226 9.556L57.3106 13.06H59.7346ZM69.3444 7.624V8.98H67.1124V16H65.4324V8.98H63.2004V7.624H69.3444ZM72.2502 8.98V11.08H75.0702V12.412H72.2502V14.632H75.4302V16H70.5702V7.612H75.4302V8.98H72.2502ZM79.8849 7.624C80.7649 7.624 81.5369 7.796 82.2009 8.14C82.8729 8.484 83.3889 8.976 83.7489 9.616C84.1169 10.248 84.3009 10.984 84.3009 11.824C84.3009 12.664 84.1169 13.4 83.7489 14.032C83.3889 14.656 82.8729 15.14 82.2009 15.484C81.5369 15.828 80.7649 16 79.8849 16H76.9569V7.624H79.8849ZM79.8249 14.572C80.7049 14.572 81.3849 14.332 81.8649 13.852C82.3449 13.372 82.5849 12.696 82.5849 11.824C82.5849 10.952 82.3449 10.272 81.8649 9.784C81.3849 9.288 80.7049 9.04 79.8249 9.04H78.6369V14.572H79.8249Z" fill="#9747FF"/>
</svg>
