<svg width="20" height="20" viewBox="0 0 20 20" fill="none" xmlns="http://www.w3.org/2000/svg">
<g clip-path="url(#clip0_137_642)">
<path d="M4.16634 15.8335V19.1668H19.1663V4.97516H15.833M1.66634 15.0002L5.83301 10.0002L8.33301 12.5002L11.6663 8.3335L15.833 13.3335M0.833008 0.833496H15.833V15.8335H0.833008V0.833496ZM4.99967 6.66683C5.22069 6.66683 5.43265 6.57903 5.58893 6.42275C5.74521 6.26647 5.83301 6.05451 5.83301 5.8335C5.83301 5.61248 5.74521 5.40052 5.58893 5.24424C5.43265 5.08796 5.22069 5.00016 4.99967 5.00016C4.77866 5.00016 4.5667 5.08796 4.41042 5.24424C4.25414 5.40052 4.16634 5.61248 4.16634 5.8335C4.16634 6.05451 4.25414 6.26647 4.41042 6.42275C4.5667 6.57903 4.77866 6.66683 4.99967 6.66683Z" stroke="#09422D" stroke-width="1.66667"/>
</g>
<defs>
<clipPath id="clip0_137_642">
<rect width="20" height="20" fill="white"/>
</clipPath>
</defs>
</svg>
