<svg width="78" height="24" viewBox="0 0 78 24" fill="none" xmlns="http://www.w3.org/2000/svg">
<rect width="78" height="24" rx="5" fill="#E2E2EA"/>
<path d="M14.9123 7.624V16H13.2323V7.624H14.9123ZM23.7361 16H22.0561L18.2521 10.252V16H16.5721V7.612H18.2521L22.0561 13.372V7.612H23.7361V16ZM31.1837 7.624C32.0637 7.624 32.8357 7.796 33.4997 8.14C34.1717 8.484 34.6877 8.976 35.0477 9.616C35.4157 10.248 35.5997 10.984 35.5997 11.824C35.5997 12.664 35.4157 13.4 35.0477 14.032C34.6877 14.656 34.1717 15.14 33.4997 15.484C32.8357 15.828 32.0637 16 31.1837 16H28.2557V7.624H31.1837ZM31.1237 14.572C32.0037 14.572 32.6837 14.332 33.1637 13.852C33.6437 13.372 33.8837 12.696 33.8837 11.824C33.8837 10.952 33.6437 10.272 33.1637 9.784C32.6837 9.288 32.0037 9.04 31.1237 9.04H29.9357V14.572H31.1237ZM41.1773 16L39.3293 12.736H38.5373V16H36.8573V7.624H40.0013C40.6493 7.624 41.2013 7.74 41.6573 7.972C42.1133 8.196 42.4533 8.504 42.6773 8.896C42.9093 9.28 43.0253 9.712 43.0253 10.192C43.0253 10.744 42.8653 11.244 42.5453 11.692C42.2253 12.132 41.7493 12.436 41.1173 12.604L43.1213 16H41.1773ZM38.5373 11.476H39.9413C40.3973 11.476 40.7373 11.368 40.9613 11.152C41.1853 10.928 41.2973 10.62 41.2973 10.228C41.2973 9.844 41.1853 9.548 40.9613 9.34C40.7373 9.124 40.3973 9.016 39.9413 9.016H38.5373V11.476ZM49.6808 14.404H46.3448L45.7928 16H44.0288L47.0408 7.612H48.9968L52.0088 16H50.2328L49.6808 14.404ZM49.2248 13.06L48.0128 9.556L46.8008 13.06H49.2248ZM58.3066 7.624V8.98H54.8146V11.128H57.4906V12.46H54.8146V16H53.1346V7.624H58.3066ZM65.1979 7.624V8.98H62.9659V16H61.2859V8.98H59.0539V7.624H65.1979Z" fill="#4C4C4C"/>
</svg>
