<svg xmlns="http://www.w3.org/2000/svg" width="20.18" height="20" viewBox="0 0 20.18 20">
  <g id="Icon_akar-edit" data-name="Icon akar-edit" transform="translate(-5 -3.5)">
    <path id="Path_1" data-name="Path 1" d="M22.3,7.05l2.243,2.242m-.8-4.216-6.064,6.064a2.243,2.243,0,0,0-.614,1.146l-.56,2.8,2.8-.561a2.24,2.24,0,0,0,1.146-.613L26.513,7.85a1.962,1.962,0,0,0-2.775-2.775Z" transform="translate(-3.088)" fill="none" stroke="#000" stroke-linecap="round" stroke-linejoin="round" stroke-width="2"/>
    <path id="Path_2" data-name="Path 2" d="M21.883,18.088v3.177a2.118,2.118,0,0,1-2.118,2.118H8.118A2.118,2.118,0,0,1,6,21.265V9.618A2.118,2.118,0,0,1,8.118,7.5h3.177" transform="translate(0 -0.882)" fill="none" stroke="#000" stroke-linecap="round" stroke-linejoin="round" stroke-width="2"/>
  </g>
</svg>
