<svg width="20" height="18" viewBox="0 0 20 18" fill="none" xmlns="http://www.w3.org/2000/svg">
<path d="M11.8891 12.6004H7.3111C7.20218 12.6001 7.09779 12.5567 7.02077 12.4797C6.94375 12.4027 6.90036 12.2983 6.9001 12.1894V9.41139C6.90036 9.30247 6.94375 9.19808 7.02077 9.12106C7.09779 9.04404 7.20218 9.00066 7.3111 9.00039H11.8881C11.997 9.00066 12.1014 9.04404 12.1784 9.12106C12.2554 9.19808 12.2988 9.30247 12.2991 9.41139V12.1884C12.2988 12.2973 12.2554 12.4017 12.1784 12.4787C12.1014 12.5557 11.997 12.5991 11.8881 12.5994M15.4491 11.6994C15.1821 11.6992 14.9211 11.6198 14.6992 11.4713C14.4774 11.3228 14.3045 11.1118 14.2025 10.8651C14.1005 10.6183 14.074 10.3469 14.1262 10.085C14.1785 9.8232 14.3073 9.58275 14.4962 9.39409C14.6852 9.20543 14.9258 9.07703 15.1877 9.02514C15.4496 8.97324 15.721 9.00018 15.9676 9.10254C16.2143 9.2049 16.425 9.37809 16.5731 9.6002C16.7213 9.82232 16.8003 10.0834 16.8001 10.3504C16.8004 10.5277 16.7656 10.7034 16.6979 10.8673C16.6301 11.0312 16.5307 11.1802 16.4053 11.3056C16.2799 11.431 16.1309 11.5304 15.967 11.5982C15.8031 11.6659 15.6275 11.7007 15.4501 11.7004M18.1891 3.60039H17.2121C17.1032 3.60065 16.9988 3.64404 16.9218 3.72106C16.8447 3.79808 16.8014 3.90247 16.8011 4.01139V5.98539L15.8821 1.62939C15.8424 1.42445 15.7328 1.23966 15.5719 1.10667C15.411 0.973686 15.2088 0.900763 15.0001 0.900391L4.2001 0.900391C3.99135 0.900763 3.78923 0.973686 3.62833 1.10667C3.46743 1.23966 3.35776 1.42445 3.3181 1.62939L2.4001 5.97639V4.01139C2.39983 3.90247 2.35645 3.79808 2.27943 3.72106C2.20241 3.64404 2.09802 3.60065 1.9891 3.60039H1.0111C0.902176 3.60065 0.79779 3.64404 0.72077 3.72106C0.64375 3.79808 0.600363 3.90247 0.600099 4.01139V5.88939C0.600363 5.99831 0.64375 6.1027 0.72077 6.17972C0.79779 6.25674 0.902176 6.30013 1.0111 6.30039L1.8791 6.40039L1.0001 7.32339C0.873264 7.44714 0.772519 7.59505 0.703816 7.75839C0.635113 7.92173 0.599846 8.09719 0.600099 8.27439V15.7884C0.600099 16.1362 0.73819 16.4697 0.984021 16.7158C1.22985 16.9618 1.56331 17.1001 1.9111 17.1004H2.8881C2.94216 17.1004 2.99568 17.0897 3.04561 17.069C3.09554 17.0483 3.1409 17.0179 3.17907 16.9797C3.21725 16.9414 3.24751 16.896 3.2681 16.846C3.2887 16.796 3.29923 16.7424 3.2991 16.6884V14.8124C3.29897 14.7583 3.3095 14.7048 3.3301 14.6548C3.35069 14.6048 3.38095 14.5594 3.41912 14.5211C3.4573 14.4829 3.50265 14.4525 3.55258 14.4318C3.60251 14.4111 3.65604 14.4004 3.7101 14.4004H15.4921C15.5462 14.4004 15.5997 14.4111 15.6496 14.4318C15.6995 14.4525 15.7449 14.4829 15.7831 14.5211C15.8213 14.5594 15.8515 14.6048 15.8721 14.6548C15.8927 14.7048 15.9032 14.7583 15.9031 14.8124V16.6884C15.903 16.7424 15.9135 16.796 15.9341 16.846C15.9547 16.896 15.9849 16.9414 16.0231 16.9797C16.0613 17.0179 16.1067 17.0483 16.1566 17.069C16.2065 17.0897 16.26 17.1004 16.3141 17.1004H17.2911C17.6384 17.0996 17.9712 16.9612 18.2165 16.7154C18.4619 16.4697 18.5998 16.1367 18.6001 15.7894V8.27539C18.5995 8.10053 18.5638 7.92757 18.4951 7.76678C18.4264 7.60599 18.3261 7.46065 18.2001 7.33939L17.3001 6.41339L18.1821 6.30039C18.2366 6.30118 18.2908 6.29115 18.3414 6.27086C18.392 6.25058 18.4381 6.22044 18.477 6.18221C18.5158 6.14398 18.5467 6.09841 18.5679 6.04815C18.589 5.99788 18.6 5.94392 18.6001 5.88939V4.01139C18.5998 3.90247 18.5564 3.79808 18.4794 3.72106C18.4024 3.64404 18.298 3.60065 18.1891 3.60039ZM5.2761 2.70039H13.9231C14.0178 2.70116 14.1094 2.73462 14.1823 2.79512C14.2551 2.85562 14.3049 2.93943 14.3231 3.03239L14.8711 5.80939C14.8829 5.86873 14.8814 5.92993 14.8668 5.98863C14.8522 6.04734 14.8248 6.10209 14.7866 6.14899C14.7484 6.19589 14.7003 6.23378 14.6458 6.25995C14.5912 6.28612 14.5316 6.29993 14.4711 6.30039H4.7281C4.66761 6.29993 4.60796 6.28612 4.55343 6.25995C4.49889 6.23378 4.4508 6.19589 4.41259 6.14899C4.37438 6.10209 4.347 6.04734 4.33239 5.98863C4.31779 5.92993 4.31632 5.86873 4.3281 5.80939L4.8761 3.03239C4.8943 2.93943 4.94406 2.85562 5.01694 2.79512C5.08983 2.73462 5.18138 2.70116 5.2761 2.70039ZM3.7501 11.7004C3.48309 11.7004 3.22209 11.6212 3.00008 11.4729C2.77807 11.3245 2.60504 11.1137 2.50286 10.867C2.40068 10.6203 2.37395 10.3489 2.42604 10.087C2.47813 9.82514 2.6067 9.5846 2.79551 9.3958C2.98431 9.207 3.22485 9.07842 3.48673 9.02633C3.7486 8.97424 4.02004 9.00097 4.26672 9.10315C4.5134 9.20533 4.72424 9.37836 4.87258 9.60037C5.02092 9.82238 5.1001 10.0834 5.1001 10.3504C5.10036 10.5277 5.06562 10.7034 4.99787 10.8673C4.93012 11.0312 4.83069 11.1802 4.70528 11.3056C4.57987 11.431 4.43094 11.5304 4.26703 11.5982C4.10312 11.6659 3.92746 11.7007 3.7501 11.7004Z" stroke="#848A90" stroke-width="1.2"/>
</svg>
