<svg width="34" height="32" viewBox="0 0 34 32" fill="none" xmlns="http://www.w3.org/2000/svg">
<path d="M33.1275 16C33.1275 7.16344 25.7995 0 16.76 0C7.72054 0 0.392578 7.16344 0.392578 16C0.392578 24.8366 7.72054 32 16.76 32C25.7995 32 33.1275 24.8366 33.1275 16Z" fill="#E5EFFF"/>
<path d="M11.8496 12.4V20.8H20.4425V22H11.8496C11.5265 21.9924 11.2187 21.8635 10.9902 21.6401C10.7617 21.4167 10.6299 21.1159 10.6221 20.8V12.4H11.8496ZM21.7315 10C21.8919 10.0014 22.0505 10.034 22.1981 10.0958C22.3456 10.1576 22.4791 10.2474 22.5908 10.36C22.706 10.4692 22.7979 10.5997 22.8611 10.7439C22.9243 10.8881 22.9576 11.0431 22.959 11.2V18.4C22.9512 18.7159 22.8194 19.0167 22.5908 19.2401C22.3623 19.4635 22.0546 19.5924 21.7315 19.6H14.3661C14.043 19.5924 13.7353 19.4635 13.5067 19.2401C13.2782 19.0167 13.1463 18.7159 13.1385 18.4V11.2C13.14 11.0431 13.1733 10.8881 13.2365 10.7439C13.2997 10.5997 13.3916 10.4692 13.5068 10.36C13.6186 10.2474 13.752 10.1576 13.8995 10.0958C14.047 10.034 14.2056 10.0014 14.3661 10H21.7315ZM21.0563 13V11.8H14.9185V13H21.0563ZM21.0563 15.4V14.2H14.9185V15.4H21.0563ZM18.6012 17.8V16.6H14.9185V17.8H18.6012Z" fill="#0959E2"/>
</svg>
