<svg xmlns="http://www.w3.org/2000/svg" width="20.998" height="21" viewBox="0 0 20.998 21">
  <g id="eye_6063720" transform="translate(-25.493 -25.448)">
    <path id="Path_6" data-name="Path 6" d="M-111.036-.032h10.58a5.454,5.454,0,0,1,2.636.525l.143.071A4.7,4.7,0,0,1-95.5,3.327a4.677,4.677,0,0,1,.148,1.218c0,.053,0,.105,0,.16q0,.263,0,.526,0,.189,0,.379,0,.46,0,.92,0,.374,0,.748,0,1.063,0,2.126c0,.038,0,.076,0,.116v.116q0,.927,0,1.855,0,.954,0,1.909,0,.535,0,1.07,0,.456,0,.911,0,.232,0,.464a5.445,5.445,0,0,1-.524,2.641l-.071.143A4.7,4.7,0,0,1-98.7,20.808a4.678,4.678,0,0,1-1.218.148H-105l-1.855,0-1.909,0h-2.445a5.444,5.444,0,0,1-2.64-.524l-.143-.071a4.7,4.7,0,0,1-2.181-2.764,4.678,4.678,0,0,1-.148-1.218c0-.053,0-.105,0-.16q0-.263,0-.526,0-.189,0-.379,0-.46,0-.92,0-.374,0-.748,0-1.063,0-2.126v-.116c0-.038,0-.076,0-.116q0-.927,0-1.855,0-.954,0-1.909,0-.535,0-1.07,0-.456,0-.911,0-.232,0-.464a5.436,5.436,0,0,1,.524-2.64l.072-.144A4.684,4.684,0,0,1-112.956.122,7.311,7.311,0,0,1-111.036-.032Zm-1.08,9-.1.09a8.086,8.086,0,0,0-.592.63l-.318.351-.092.1-.08.087a.456.456,0,0,0-.056.368,2.138,2.138,0,0,0,.216.276l.068.077c.072.08.144.16.217.239l.142.157a12.266,12.266,0,0,0,1.133,1.118l.12.1a8.753,8.753,0,0,0,6.331,2.392,8.7,8.7,0,0,0,4.161-1.813l.086-.064a12.423,12.423,0,0,0,1.072-.916c.072-.068.146-.134.22-.2a6.4,6.4,0,0,0,.64-.639c.128-.152.263-.3.4-.444l.092-.1.08-.088a.45.45,0,0,0,.056-.368,2.42,2.42,0,0,0-.233-.293l-.074-.083c-.079-.088-.159-.175-.239-.261l-.156-.173a12.675,12.675,0,0,0-1.757-1.6l-.083-.064a11.134,11.134,0,0,0-1.283-.847l-.09-.052C-105.8,4.921-109.339,6.377-112.116,8.973Z" transform="translate(141.828 25.482)"/>
    <path id="Path_7" data-name="Path 7" d="M-94.386-11.961a2.9,2.9,0,0,1,.979,1.79,3.069,3.069,0,0,1-.652,2.209,2.929,2.929,0,0,1-1.987.9,2.983,2.983,0,0,1-2-.735,2.861,2.861,0,0,1-.848-2.014,2.891,2.891,0,0,1,.747-1.925A2.937,2.937,0,0,1-94.386-11.961Z" transform="translate(132.133 45.756)"/>
  </g>
</svg>
