<svg width="17" height="18" viewBox="0 0 17 18" fill="none" xmlns="http://www.w3.org/2000/svg">
<path d="M15.5831 9.54853C15.4495 9.39645 15.3758 9.20095 15.3758 8.99853C15.3758 8.79611 15.4495 8.6006 15.5831 8.44853L16.6498 7.24853C16.7673 7.11742 16.8403 6.95245 16.8582 6.77728C16.8762 6.60212 16.8382 6.42577 16.7498 6.27353L15.0831 3.3902C14.9955 3.23813 14.8622 3.11759 14.702 3.04577C14.5419 2.97394 14.3632 2.95449 14.1914 2.9902L12.6248 3.30686C12.4254 3.34805 12.2179 3.31485 12.0413 3.21353C11.8648 3.11221 11.7314 2.94976 11.6664 2.75686L11.1581 1.23186C11.1022 1.06634 10.9957 0.922583 10.8536 0.820897C10.7115 0.719212 10.5411 0.664745 10.3664 0.665196H7.03308C6.85136 0.655711 6.67153 0.705968 6.52105 0.808291C6.37058 0.910614 6.25773 1.05938 6.19975 1.23186L5.73308 2.75686C5.66808 2.94976 5.53473 3.11221 5.35818 3.21353C5.18163 3.31485 4.9741 3.34805 4.77475 3.30686L3.16642 2.9902C3.00354 2.96718 2.8375 2.99288 2.68921 3.06406C2.54091 3.13524 2.417 3.24872 2.33308 3.3902L0.666417 6.27353C0.575718 6.42407 0.534936 6.59943 0.549903 6.77455C0.56487 6.94966 0.634819 7.11556 0.749751 7.24853L1.80808 8.44853C1.94168 8.6006 2.01536 8.79611 2.01536 8.99853C2.01536 9.20095 1.94168 9.39645 1.80808 9.54853L0.749751 10.7485C0.634819 10.8815 0.56487 11.0474 0.549903 11.2225C0.534936 11.3976 0.575718 11.573 0.666417 11.7235L2.33308 14.6069C2.42067 14.7589 2.55402 14.8795 2.71413 14.9513C2.87424 15.0231 3.05294 15.0426 3.22475 15.0069L4.79142 14.6902C4.99077 14.649 5.1983 14.6822 5.37484 14.7835C5.55139 14.8849 5.68475 15.0473 5.74975 15.2402L6.25808 16.7652C6.31607 16.9377 6.42891 17.0864 6.57939 17.1888C6.72986 17.2911 6.9097 17.3413 7.09142 17.3319H10.4248C10.5995 17.3323 10.7699 17.2778 10.9119 17.1762C11.054 17.0745 11.1605 16.9307 11.2164 16.7652L11.7248 15.2402C11.7898 15.0473 11.9231 14.8849 12.0997 14.7835C12.2762 14.6822 12.4837 14.649 12.6831 14.6902L14.2498 15.0069C14.4216 15.0426 14.6003 15.0231 14.7604 14.9513C14.9205 14.8795 15.0538 14.7589 15.1414 14.6069L16.8081 11.7235C16.8966 11.5713 16.9345 11.3949 16.9166 11.2198C16.8986 11.0446 16.8256 10.8796 16.7081 10.7485L15.5831 9.54853ZM14.3414 10.6652L15.0081 11.4152L13.9414 13.2652L12.9581 13.0652C12.3579 12.9425 11.7336 13.0445 11.2036 13.3517C10.6736 13.6589 10.2749 14.1501 10.0831 14.7319L9.76642 15.6652H7.63308L7.33308 14.7152C7.1413 14.1334 6.74257 13.6423 6.21259 13.335C5.68261 13.0278 5.05827 12.9258 4.45808 13.0485L3.47475 13.2485L2.39142 11.4069L3.05808 10.6569C3.46805 10.1985 3.69469 9.60514 3.69469 8.9902C3.69469 8.37525 3.46805 7.78188 3.05808 7.32353L2.39142 6.57353L3.45808 4.7402L4.44142 4.9402C5.0416 5.06288 5.66594 4.96093 6.19592 4.65369C6.7259 4.34646 7.12463 3.85533 7.31642 3.27353L7.63308 2.33186H9.76642L10.0831 3.28186C10.2749 3.86366 10.6736 4.35479 11.2036 4.66203C11.7336 4.96926 12.3579 5.07121 12.9581 4.94853L13.9414 4.74853L15.0081 6.59853L14.3414 7.34853C13.9361 7.80583 13.7122 8.39576 13.7122 9.00686C13.7122 9.61796 13.9361 10.2079 14.3414 10.6652ZM8.69975 5.6652C8.04048 5.6652 7.39601 5.86069 6.84785 6.22696C6.29969 6.59324 5.87244 7.11383 5.62015 7.72292C5.36786 8.332 5.30185 9.00223 5.43047 9.64883C5.55908 10.2954 5.87655 10.8894 6.34273 11.3556C6.8089 11.8217 7.40285 12.1392 8.04945 12.2678C8.69605 12.3964 9.36627 12.3304 9.97536 12.0781C10.5844 11.8258 11.105 11.3986 11.4713 10.8504C11.8376 10.3023 12.0331 9.6578 12.0331 8.99853C12.0331 8.11447 11.6819 7.26663 11.0568 6.64151C10.4317 6.01638 9.58381 5.6652 8.69975 5.6652ZM8.69975 10.6652C8.37012 10.6652 8.04788 10.5674 7.7738 10.3843C7.49972 10.2012 7.2861 9.94088 7.15995 9.63633C7.03381 9.33179 7.0008 8.99668 7.06511 8.67338C7.12942 8.35008 7.28815 8.0531 7.52124 7.82002C7.75433 7.58693 8.0513 7.42819 8.3746 7.36389C8.6979 7.29958 9.03301 7.33258 9.33756 7.45873C9.6421 7.58488 9.9024 7.7985 10.0855 8.07258C10.2687 8.34666 10.3664 8.66889 10.3664 8.99853C10.3664 9.44056 10.1908 9.86448 9.87826 10.177C9.5657 10.4896 9.14178 10.6652 8.69975 10.6652Z" fill="#127729"/>
</svg>
