<svg width="20" height="14" viewBox="0 0 20 14" fill="none" xmlns="http://www.w3.org/2000/svg">
<path d="M9.22774 3.67585C9.13699 3.836 9.10439 4.02225 9.1354 4.20341V4.32228C9.1354 4.44582 9.14166 4.56858 9.14558 4.69211C9.14558 4.76981 9.14558 4.84207 9.15105 4.91743C9.15731 5.15052 9.16514 5.37506 9.17296 5.60348L9.18157 5.85289C9.18861 6.06888 9.19644 6.2841 9.20426 6.50009C9.21209 6.71609 9.21991 6.93752 9.22695 7.16439C9.24208 7.5969 9.25747 8.02889 9.27312 8.46036L9.36936 8.45103L9.49691 8.43938L9.62289 8.42773C9.98981 8.39392 10.3595 8.40462 10.7238 8.45958C10.7558 8.34773 10.7737 8.23238 10.777 8.11617V7.77741L10.7888 7.38505L10.7974 7.11156C10.8029 6.92043 10.8091 6.73007 10.8146 6.53894C10.8216 6.29498 10.8295 6.05101 10.8365 5.80705L10.8576 5.10779C10.8576 5.0635 10.8576 5.01921 10.8615 4.97337C10.8655 4.84673 10.8686 4.72164 10.8725 4.59499V4.48389C10.8725 4.37978 10.878 4.27722 10.8803 4.17777V3.87631C10.8803 3.78618 10.8803 3.78618 10.7958 3.68828L10.6941 3.61059L10.5939 3.53289C10.3805 3.39642 10.1267 3.33622 9.87421 3.36221C9.62174 3.3882 9.38571 3.49882 9.20504 3.67585M2.63541 7.0766C2.36191 7.37102 2.15031 7.71665 2.013 8.09327C1.87569 8.46988 1.81542 8.86992 1.83572 9.26995C1.84239 9.63342 1.9222 9.99189 2.07046 10.3243L2.12054 10.4455C2.25085 10.7116 2.42102 10.9565 2.62523 11.1719L2.71287 11.2714C3.13806 11.6971 3.68088 11.9879 4.27262 12.1072C4.86436 12.2264 5.47842 12.1687 6.0371 11.9413C6.59577 11.7138 7.07395 11.327 7.41111 10.8296C7.74827 10.3322 7.92927 9.74673 7.93118 9.14719C7.9299 8.73301 7.84497 8.32329 7.6814 7.94227C7.51783 7.56126 7.27896 7.2167 6.97891 6.92897C6.3815 6.37823 5.58899 6.08442 4.77426 6.11164C3.95953 6.13886 3.1887 6.48489 2.62993 7.07427M12.8662 7.07427C12.5927 7.36868 12.3811 7.71432 12.2438 8.09094C12.1065 8.46755 12.0462 8.86759 12.0665 9.26762C12.0732 9.63109 12.153 9.98956 12.3013 10.3219L12.3514 10.4432C12.4817 10.7092 12.6518 10.9542 12.8561 11.1696L12.9437 11.2691C13.374 11.7008 13.9247 11.9947 14.5248 12.1128C15.1249 12.2309 15.7469 12.1677 16.3105 11.9316C16.8741 11.6954 17.3536 11.2969 17.687 10.7877C18.0205 10.2784 18.1926 9.68159 18.1813 9.07425C18.17 8.4669 17.9757 7.87685 17.6235 7.38018C17.2712 6.8835 16.7773 6.50298 16.2052 6.28768C15.6332 6.07237 15.0093 6.03216 14.414 6.17222C13.8187 6.31228 13.2794 6.6262 12.8655 7.07349M8.09785 0.956501C8.49377 1.26738 8.79744 1.679 8.97656 2.14758L9.06498 2.11106C9.69888 1.88098 10.3964 1.894 11.0212 2.14758L11.0665 2.03647C11.3546 1.37921 11.8873 0.857848 12.5532 0.58123C13.1955 0.341205 13.9048 0.347854 14.5423 0.599877C15.2229 0.934926 15.7662 1.49282 16.0806 2.17943L16.2371 2.46069L16.3154 2.60287C16.432 2.81188 16.5501 3.0201 16.6698 3.23066C16.8634 3.57045 17.0564 3.91075 17.2489 4.25158C17.4414 4.5924 17.6325 4.92909 17.8224 5.26162L17.8827 5.36807C18.0474 5.68201 18.2549 5.97195 18.4993 6.22971C19.2441 7.07084 19.6398 8.16126 19.6065 9.28083C19.5669 10.3996 19.1085 11.4634 18.3209 12.2643L18.2426 12.3521C17.667 12.9212 16.9407 13.3164 16.1479 13.4919L16.036 13.5207C15.3521 13.6574 14.6453 13.633 13.9727 13.4492L13.8162 13.4049C13.1786 13.2074 12.5914 12.8756 12.0947 12.4322L11.9969 12.3483C11.312 11.6917 10.8668 10.8273 10.7316 9.89151C10.2534 9.7934 9.75998 9.7934 9.28173 9.89151L9.26295 9.99873C9.1561 10.5706 8.93659 11.1159 8.61701 11.6034C8.29744 12.0908 7.88408 12.5108 7.40066 12.8393C6.39954 13.4901 5.18621 13.7374 4.00786 13.5308C3.22257 13.3702 2.49383 13.0068 1.89519 12.4772L1.83259 12.4205C0.956582 11.6148 0.438473 10.4967 0.392056 9.3119C0.347963 8.20255 0.736096 7.11898 1.47578 6.28643L1.56968 6.18853C1.76152 5.97044 1.92454 5.72892 2.05481 5.46985L2.21131 5.18781L2.28955 5.0433C2.41397 4.81643 2.54151 4.59111 2.66905 4.36579L2.8185 4.10085C3.00525 3.77038 3.19279 3.44018 3.3811 3.11023C3.47656 2.94292 3.57176 2.7751 3.6667 2.60676L3.74104 2.47545L3.87093 2.23149C4.0471 1.83192 4.30324 1.47209 4.62378 1.17384C4.94432 0.875594 5.32257 0.645162 5.73556 0.496542C6.13845 0.388005 6.5611 0.373038 6.97076 0.452802C7.38041 0.532566 7.76607 0.704917 8.09785 0.956501Z" stroke="#127729"/>
</svg>
